# This file uses meters as units for non-parametric coordinates.

mtllib small_house.mtl
g default
v -1034.250977 12.129459 -373.832245
v -1034.250977 12.129459 -896.480957
v -1839.703857 12.129459 -373.832245
v -1839.703857 12.129459 -896.480957
v -1029.784302 316.156525 -369.288239
v -1846.212036 316.156525 -369.288239
v -1846.212036 315.679840 -901.643860
v -1029.784302 315.679840 -901.643860
v -1033.165161 12.222317 -540.231567
v -1033.165161 12.222317 -730.255371
v -1030.857422 221.489609 -732.132446
v -1030.857422 221.813919 -538.579468
v -1844.648438 221.813889 -538.579468
v -1844.648438 221.489609 -732.132507
v -1841.285889 12.222317 -730.255371
v -1841.285889 12.222317 -540.231567
v -1057.010986 12.228210 -540.231812
v -1057.010986 12.228210 -730.255615
v -1054.703125 221.754745 -732.132690
v -1054.703125 222.079056 -538.579651
v -1820.804321 222.200119 -538.579773
v -1820.804321 221.875839 -732.132813
v -1817.441772 12.230907 -730.255676
v -1817.441772 12.230907 -540.231934
v -1015.373779 300.684814 -316.126190
v -1015.373779 300.056732 -953.981079
v -1858.581055 300.684814 -316.126190
v -1858.581055 300.056732 -953.981079
v -1017.603394 511.188202 -523.827209
v -1017.603394 511.188202 -746.486023
v -1856.351440 511.188202 -746.486023
v -1856.351440 511.188202 -523.827209
v -1658.949707 191.469666 -339.775513
v -1658.949707 191.469666 -373.401215
v -1658.949707 307.166290 -339.775513
v -1658.949707 307.166290 -373.401215
v -1724.572266 307.166290 -339.775513
v -1724.572266 307.166290 -373.401215
v -1724.572266 191.469666 -339.775513
v -1724.572266 191.469666 -373.401215
v -1417.410767 191.469666 -339.775513
v -1417.410767 191.469666 -373.401215
v -1417.410767 307.166290 -339.775513
v -1417.410767 307.166290 -373.401215
v -1483.033447 307.166290 -339.775513
v -1483.033447 307.166290 -373.401215
v -1483.033447 191.469666 -339.775513
v -1483.033447 191.469666 -373.401215
v -1153.774902 191.469666 -339.775513
v -1153.774902 191.469666 -373.401215
v -1153.774902 307.166290 -339.775513
v -1153.774902 307.166290 -373.401215
v -1219.397583 307.166290 -339.775513
v -1219.397583 307.166290 -373.401215
v -1219.397583 191.469666 -339.775513
v -1219.397583 191.469666 -373.401215
v -1658.949707 191.469666 -927.409546
v -1658.949707 191.469666 -893.783813
v -1658.949707 307.166290 -927.409546
v -1658.949707 307.166290 -893.783813
v -1724.572266 307.166290 -927.409546
v -1724.572266 307.166290 -893.783813
v -1724.572266 191.469666 -927.409546
v -1724.572266 191.469666 -893.783813
v -1417.410767 191.469666 -927.409546
v -1417.410767 191.469666 -893.783813
v -1417.410767 307.166290 -927.409546
v -1417.410767 307.166290 -893.783813
v -1483.033447 307.166290 -927.409546
v -1483.033447 307.166290 -893.783813
v -1483.033447 191.469666 -927.409546
v -1483.033447 191.469666 -893.783813
v -1153.774902 191.469666 -927.409546
v -1153.774902 191.469666 -893.783813
v -1153.774902 307.166290 -927.409546
v -1153.774902 307.166290 -893.783813
v -1219.397583 307.166290 -927.409546
v -1219.397583 307.166290 -893.783813
v -1219.397583 191.469666 -927.409546
v -1219.397583 191.469666 -893.783813
vt 0.253014 0.036116
vt 0.482121 0.035885
vt 0.482106 0.281726
vt 0.256880 0.281170
vt 0.479700 0.282864
vt 0.257356 0.280070
vt 0.255581 0.038434
vt 0.481608 0.039796
vt 0.760660 0.585146
vt 0.760777 0.019661
vt 0.973923 0.015136
vt 0.973804 0.588326
vt 0.760201 0.582442
vt 0.761137 0.021256
vt 0.973838 0.018081
vt 0.972160 0.587536
vt 0.711130 0.024378
vt 0.719001 0.417273
vt 0.500455 0.298237
vt 0.502514 0.017274
vt 0.020114 0.418983
vt 0.238874 0.299953
vt 0.024833 0.029033
vt 0.232447 0.019437
vt 0.712417 0.418406
vt 0.022391 0.414271
vt 0.239395 0.298425
vt 0.497677 0.299297
vt 0.030599 0.029731
vt 0.235440 0.021839
vt 0.707917 0.029868
vt 0.501863 0.021626
vt 0.179569 0.508422
vt 0.301312 0.512077
vt 0.289039 0.923841
vt 0.167217 0.920448
vt 0.019753 0.446519
vt 0.441051 0.442883
vt 0.449097 0.985668
vt 0.027763 0.989675
vt 0.810673 0.609704
vt 0.918522 0.609464
vt 0.919348 0.980544
vt 0.811499 0.980784
vt 0.601024 0.981253
vt 0.493175 0.981493
vt 0.492348 0.610413
vt 0.600198 0.610173
vt 0.810673 0.609704
vt 0.918522 0.609464
vt 0.919348 0.980544
vt 0.811499 0.980784
vt 0.601024 0.981253
vt 0.493174 0.981493
vt 0.492348 0.610413
vt 0.600198 0.610173
vt 0.810673 0.609704
vt 0.918522 0.609464
vt 0.919349 0.980544
vt 0.811499 0.980784
vt 0.601024 0.981253
vt 0.493175 0.981493
vt 0.492348 0.610413
vt 0.600197 0.610173
vt 0.810707 0.982379
vt 0.809218 0.611301
vt 0.917067 0.610869
vt 0.918555 0.981947
vt 0.598744 0.612146
vt 0.600233 0.983223
vt 0.492384 0.983656
vt 0.490895 0.612578
vt 0.809376 0.979462
vt 0.807888 0.608385
vt 0.915737 0.607952
vt 0.917225 0.979030
vt 0.597414 0.609229
vt 0.598903 0.980307
vt 0.491054 0.980739
vt 0.489565 0.609662
vt 0.810707 0.982379
vt 0.809218 0.611301
vt 0.917067 0.610869
vt 0.918555 0.981947
vt 0.598744 0.612146
vt 0.600233 0.983223
vt 0.492384 0.983656
vt 0.490895 0.612578
vn 0.999940 -0.011005 0.000009
vn 0.999939 -0.011005 0.000009
vn 0.999940 -0.011005 0.000009
vn 0.999940 -0.011005 0.000009
vn -0.999872 -0.016025 0.000014
vn -0.999872 -0.016025 0.000014
vn -0.999872 -0.016025 0.000014
vn -0.999872 -0.016025 0.000014
vn 0.000000 -0.017006 -0.999855
vn 0.000000 -0.017006 -0.999855
vn 0.000000 -0.017006 -0.999855
vn 0.000000 -0.017006 -0.999855
vn 0.000000 -0.014944 0.999888
vn 0.000000 -0.014944 0.999888
vn 0.000000 -0.014944 0.999888
vn 0.000000 -0.014944 0.999888
vn 0.999905 -0.013260 -0.003754
vn 0.999915 -0.012736 -0.002703
vn 0.999922 -0.012319 -0.001865
vn 0.999905 -0.013260 -0.003754
vn 0.999915 -0.012719 0.002712
vn 0.999923 -0.012306 0.001878
vn 0.999905 -0.013234 0.003753
vn 0.999905 -0.013234 0.003753
vn -0.999821 -0.018529 0.003950
vn -0.999820 -0.018555 -0.003937
vn -0.999835 -0.017947 -0.002717
vn -0.999836 -0.017928 0.002736
vn -0.999798 -0.019319 -0.005470
vn -0.999798 -0.019319 -0.005470
vn -0.999799 -0.019280 0.005468
vn -0.999799 -0.019280 0.005468
vn 0.000247 1.000000 0.000000
vn 0.000247 1.000000 0.000000
vn 0.000247 1.000000 0.000000
vn 0.000247 1.000000 0.000000
vn 0.000039 0.008963 0.999960
vn 0.000039 0.008963 0.999960
vn 0.000039 0.008963 0.999960
vn 0.000039 0.008963 0.999960
vn -0.011118 -0.999937 0.001675
vn -0.011118 -0.999937 0.001675
vn -0.011118 -0.999937 0.001675
vn -0.011118 -0.999937 0.001675
vn 0.000056 0.007877 -0.999969
vn 0.000056 0.007877 -0.999969
vn 0.000056 0.007877 -0.999969
vn 0.000056 0.007877 -0.999969
vn 0.016196 -0.999867 0.001675
vn 0.016196 -0.999867 0.001675
vn 0.016196 -0.999867 0.001675
vn 0.016196 -0.999867 0.001675
vn -0.000067 0.008961 0.999960
vn -0.000067 0.008961 0.999960
vn -0.000067 0.008961 0.999960
vn -0.000067 0.008961 0.999960
vn -0.000360 1.000000 0.000000
vn -0.000360 1.000000 0.000000
vn -0.000360 1.000000 0.000000
vn -0.000360 1.000000 0.000000
vn -0.000080 0.007874 -0.999969
vn -0.000080 0.007874 -0.999969
vn -0.000080 0.007874 -0.999969
vn -0.000080 0.007874 -0.999969
vn 0.000000 1.000000 0.000000
vn 0.000000 1.000000 0.000000
vn 0.000000 1.000000 0.000000
vn 0.000000 1.000000 0.000000
vn 0.999944 0.010576 -0.000008
vn 0.999944 0.010576 -0.000008
vn 0.999944 0.010576 -0.000008
vn 0.999944 0.010576 -0.000008
vn 0.000000 0.700938 -0.713222
vn 0.000000 0.700938 -0.713222
vn 0.000000 0.700938 -0.713222
vn 0.000000 0.700938 -0.713222
vn -0.999944 0.010576 -0.000008
vn -0.999944 0.010576 -0.000008
vn -0.999944 0.010576 -0.000008
vn -0.999944 0.010576 -0.000008
vn 0.000000 0.702353 0.711829
vn 0.000000 0.702353 0.711829
vn 0.000000 0.702353 0.711829
vn 0.000000 0.702353 0.711829
vn 1.000000 0.000000 0.000000
vn 1.000000 0.000000 0.000000
vn 1.000000 0.000000 0.000000
vn 1.000000 0.000000 0.000000
vn -1.000000 0.000000 0.000000
vn -1.000000 0.000000 0.000000
vn -1.000000 0.000000 0.000000
vn -1.000000 0.000000 0.000000
vn 0.000000 0.000000 1.000000
vn 0.000000 0.000000 1.000000
vn 0.000000 0.000000 1.000000
vn 0.000000 0.000000 1.000000
vn 1.000000 0.000000 0.000000
vn 1.000000 0.000000 0.000000
vn 1.000000 0.000000 0.000000
vn 1.000000 0.000000 0.000000
vn -1.000000 0.000000 0.000000
vn -1.000000 0.000000 0.000000
vn -1.000000 0.000000 0.000000
vn -1.000000 0.000000 0.000000
vn 0.000000 0.000000 1.000000
vn 0.000000 0.000000 1.000000
vn 0.000000 0.000000 1.000000
vn 0.000000 0.000000 1.000000
vn 1.000000 0.000000 0.000000
vn 1.000000 0.000000 0.000000
vn 1.000000 0.000000 0.000000
vn 1.000000 0.000000 0.000000
vn -1.000000 0.000000 0.000000
vn -1.000000 0.000000 0.000000
vn -1.000000 0.000000 0.000000
vn -1.000000 0.000000 0.000000
vn 0.000000 0.000000 1.000000
vn 0.000000 0.000000 1.000000
vn 0.000000 0.000000 1.000000
vn 0.000000 0.000000 1.000000
vn 1.000000 0.000000 0.000000
vn 1.000000 0.000000 0.000000
vn 1.000000 0.000000 0.000000
vn 1.000000 0.000000 0.000000
vn -1.000000 0.000000 0.000000
vn -1.000000 0.000000 0.000000
vn -1.000000 0.000000 0.000000
vn -1.000000 0.000000 0.000000
vn 0.000000 0.000000 -1.000000
vn 0.000000 0.000000 -1.000000
vn 0.000000 0.000000 -1.000000
vn 0.000000 0.000000 -1.000000
vn 1.000000 0.000000 0.000000
vn 1.000000 0.000000 0.000000
vn 1.000000 0.000000 0.000000
vn 1.000000 0.000000 0.000000
vn -1.000000 0.000000 0.000000
vn -1.000000 0.000000 0.000000
vn -1.000000 0.000000 0.000000
vn -1.000000 0.000000 0.000000
vn 0.000000 0.000000 -1.000000
vn 0.000000 0.000000 -1.000000
vn 0.000000 0.000000 -1.000000
vn 0.000000 0.000000 -1.000000
vn 1.000000 0.000000 0.000000
vn 1.000000 0.000000 0.000000
vn 1.000000 0.000000 0.000000
vn 1.000000 0.000000 0.000000
vn -1.000000 0.000000 0.000000
vn -1.000000 0.000000 0.000000
vn -1.000000 0.000000 0.000000
vn -1.000000 0.000000 0.000000
vn 0.000000 0.000000 -1.000000
vn 0.000000 0.000000 -1.000000
vn 0.000000 0.000000 -1.000000
vn 0.000000 0.000000 -1.000000
s off
g facotr__5
usemtl lambert3SG
f 17/1/1 18/2/2 19/3/3 20/4/4
f 21/5/5 22/6/6 23/7/7 24/8/8
f 2/9/9 4/10/10 7/11/11 8/12/12
f 3/13/13 1/14/14 5/15/15 6/16/16
s 1
f 2/17/17 8/18/18 11/19/19 10/20/20
f 8/18/18 5/21/21 12/22/22 11/19/19
f 5/21/21 1/23/23 9/24/24 12/22/22
s 2
f 6/25/25 7/26/26 14/27/27 13/28/28
f 7/26/26 4/29/29 15/30/30 14/27/27
f 3/31/31 6/25/25 13/28/28 16/32/32
s off
f 9/24/33 10/20/34 18/2/35 17/1/36
f 10/20/37 11/19/38 19/3/39 18/2/40
f 11/19/41 12/22/42 20/4/43 19/3/44
f 12/22/45 9/24/46 17/1/47 20/4/48
f 13/28/49 14/27/50 22/6/51 21/5/52
f 14/27/53 15/30/54 23/7/55 22/6/56
f 15/30/57 16/32/58 24/8/59 23/7/60
f 16/32/61 13/28/62 21/5/63 24/8/64
f 29/33/65 30/34/66 31/35/67 32/36/68
f 25/37/69 26/38/70 30/34/71 29/33/72
f 26/38/73 28/39/74 31/35/75 30/34/76
f 28/39/77 27/40/78 32/36/79 31/35/80
f 27/40/81 25/37/82 29/33/83 32/36/84
f 33/41/85 34/42/86 36/43/87 35/44/88
f 37/45/89 38/46/90 40/47/91 39/48/92
f 39/48/93 33/41/94 35/44/95 37/45/96
f 41/49/97 42/50/98 44/51/99 43/52/100
f 45/53/101 46/54/102 48/55/103 47/56/104
f 47/56/105 41/49/106 43/52/107 45/53/108
f 49/57/109 50/58/110 52/59/111 51/60/112
f 53/61/113 54/62/114 56/63/115 55/64/116
f 55/64/117 49/57/118 51/60/119 53/61/120
f 57/65/121 59/66/122 60/67/123 58/68/124
f 61/69/125 63/70/126 64/71/127 62/72/128
f 63/70/129 61/69/130 59/66/131 57/65/132
f 65/73/133 67/74/134 68/75/135 66/76/136
f 69/77/137 71/78/138 72/79/139 70/80/140
f 71/78/141 69/77/142 67/74/143 65/73/144
f 73/81/145 75/82/146 76/83/147 74/84/148
f 77/85/149 79/86/150 80/87/151 78/88/152
f 79/86/153 77/85/154 75/82/155 73/81/156
